<?xml version="1.0" encoding="UTF-8" standalone="no"?>
<svg
   version="1.1"
   width="398.84668"
   height="350.94366"
   id="svg12"
   sodipodi:docname="unagimaru-mono.svg"
   inkscape:version="1.4.3 (0d15f75, 2025-12-25)"
   xmlns:inkscape="http://www.inkscape.org/namespaces/inkscape"
   xmlns:sodipodi="http://sodipodi.sourceforge.net/DTD/sodipodi-0.dtd"
   xmlns="http://www.w3.org/2000/svg"
   xmlns:svg="http://www.w3.org/2000/svg">
  <defs
     id="defs12" />
  <sodipodi:namedview
     id="namedview12"
     pagecolor="#ffffff"
     bordercolor="#000000"
     borderopacity="0.25"
     inkscape:showpageshadow="2"
     inkscape:pageopacity="0.0"
     inkscape:pagecheckerboard="0"
     inkscape:deskcolor="#d1d1d1"
     inkscape:zoom="1.3822338"
     inkscape:cx="275.27904"
     inkscape:cy="22.065732"
     inkscape:window-width="2560"
     inkscape:window-height="1369"
     inkscape:window-x="-8"
     inkscape:window-y="-8"
     inkscape:window-maximized="1"
     inkscape:current-layer="svg12" />
  <path
     d="m 241.99707,6.0570143 c 0.72,0.18 1.44,0.35 2.18,0.54 26.83,6.8299997 55.14,21.3999997 74.2,41.7799997 1.62,1.67 3.3,3.11 5.12,4.56 0.41,0.35 0.41,0.35 2.5,2.12 v 2 h 2 c 6.76,6.19 11.84,14.47 17,22 0.41,0.59 0.81,1.18 1.23,1.79 7.33,10.79 12.96,21.859996 16.81,34.359996 0.96,2.85 0.96,2.85 2.41,5.93 2.27,5.19 3.12,10.76 4.17,16.3 0.22,1.08 0.44,2.17 0.66,3.28 2.24,11.42 2.96,22.4 2.97,34.03 0,0.72 0,1.45 0.01,2.19 0,29.97 0,29.97 -5.26,42.12 -1.01,3.5 -1.96,7.01 -2.9,10.53 -1.1,3.47 -1.1,3.47 -2.67,6.54 -1.5,3.07 -2.48,5.48 -2.43,8.93 2.25,-0.07 2.25,-0.07 5.56,-1.12 8.27,-2.26 17.01,-3.87 25.06,-0.26 4.19,4.19 6.61,7.24 6.94,13.26 -0.84,20.07 -12.95,37.56 -26.72,51.28 -10.16,9.22 -22.46,16.61 -36.46,17.23 -6.46,-0.75 -14.43,-3.9 -18.72,-8.98 -0.41,-0.54 -0.83,-1.09 -1.25,-1.66 -2.41,-2.75 -2.41,-2.75 -4.84,-3.43 -3.63,0.96 -5.94,3.13 -8.69,5.56 -13.45,11.1 -29.3,17.46 -45.58,23.29 -2.2,0.79 -4.39,1.62 -6.57,2.45 -15.94,5.88 -32.77,6.73 -49.59,6.64 -2.47,-0.01 -4.94,0 -7.41,0.01 -8.77,0.01 -17.12,-0.39 -25.73,-2.27 -0.7,-0.15 -1.4,-0.29 -2.13,-0.44 -26.21,-5.72 -52.53,-16.16 -72.680001,-34.25 -2.19,-1.31 -2.19,-1.31 -4.23,-0.84 -1.96,1.53 -1.96,1.53 -3.79,3.92 -4.39,5.29 -12,8.56 -18.63,10.23 -12.26,0.75 -26.09,-8.19 -35.29,-15.63 -12.63,-11.18 -22.6000001,-26.37 -26.6400001,-42.77 -0.61,-2.22 -0.61,-2.22 -1.60999998,-3.22 -0.82,-6.69 -0.34,-11.71 3.41999998,-17.34 3.12,-3.27 5.6200001,-4.56 10.1400001,-5.02 1.28,0.01 2.56,0.03 3.88,0.05 0.64,0 0.64,0 3.87,0.01 3.59,0.29 6.34,1.02 9.69,2.3 2.84,1.04 3.94,1.41 7,1 -0.75,-2.99 -2.07,-5.61 -3.39,-8.4 -2.08,-4.66 -3.37,-9.39 -4.7,-14.3 -0.76,-2.77 -1.62,-5.46 -2.53,-8.18 -3.59,-12.09 -3.75,-25.05 -3.75,-37.57 0,-2.42 -0.04,-4.83 -0.08,-7.24 -0.07,-10.59 1.38,-20.16 4,-30.41 2.15878,-14.01498 3.56113,-14.6699 7.45,-27.9 h 2 c 0.12,-0.8 0.25,-1.61 0.38,-2.44 3.35,-19.109996 83.870001,-90.999996 102.620001,-97.559996 1.25,-0.49 2.5,-0.98 3.75,-1.4599997 29.87,-11.16 66.52,-11.27 97.25,-3.54 z"
     fill="#f76911"
     id="path2"
     sodipodi:nodetypes="ccccccccccccccccccccccccccccccccccccccccccccccccccscccccccc"
     style="fill:#000000" />
  <path
     id="path3"
     style="fill:#000000"
     d="m 193.56137,0.10310428 c -35.7571,0.42391 -72.61025,11.04693972 -101.399371,32.08624972 -33.71772,30.80222 -35.56827,31.24999 -58.85774,74.863526 -13.64571,34.82495 -17.30567,94.1069 1.01337,133.86648 -2.05655,5.2567 -27.2447401,-9.99217 -34.3173600762,12.50095 C -0.07083108,275.01395 13.967129,295.95501 29.487819,310.23572 c 13.25016,11.19276 35.34051,24.0312 50.24682,8.84251 18.33432,-14.33656 18.94666,16.8605 94.232651,29.6432 51.63317,6.66539 78.68757,-1.43384 125.14301,-27.40848 13.77751,-7.66417 9.98759,-10.53384 24.93112,2.64686 24.58413,7.92561 48.02819,-14.13236 60.98928,-32.72086 9.2662,-13.05827 21.92463,-34.99915 6.79157,-47.77469 -7.39162,-9.60444 -39.02669,10.24038 -26.34958,-9.69054 7.94106,-20.47252 11.13387,-43.05304 9.64716,-65.41005 C 373.63169,120.33588 360.37384,85.535744 323.94412,47.340654 268.50123,4.5504443 236.25844,-0.88668572 193.56137,0.10310428 Z m 2.29507,12.36406972 c 79.06376,-4.8565597 154.49389,58.52805 165.21013,136.675846 5.97055,42.65885 -2.81501,87.91325 -29.16135,122.66173 -45.45655,65.68888 -142.13365,87.24197 -211.43998,47.80779 C 60.669079,288.17395 25.614249,217.18778 36.738389,150.59627 44.335939,92.910404 86.364209,42.576454 140.15637,21.692864 c 17.84437,-6.15985 36.82073,-9.29361 55.70007,-9.22569 z"
     sodipodi:nodetypes="ccccccccccccccccccccccc" />
  <circle
     cx="292.57059"
     cy="161.28427"
     r="50.900002"
     fill="#fbf9f8"
     id="circle3" />
  <circle
     cx="100.33176"
     cy="161.64545"
     r="50.900002"
     fill="#fbfaf8"
     id="circle4" />
  <path
     d="m 36.273599,197.14744 c 8.39489,20.12085 16.7481,41.01496 31.54252,57.52222 37.891381,46.05468 101.519731,68.01841 159.937201,57.29253 55.81485,-8.50189 112.32744,-53.9169 131.3582,-108.07238 5.6674,-11.00938 -3.65037,25.00721 -5.71785,29.03928 -18.4836,52.15913 -66.03561,91.44953 -119.77419,102.8888 -27.57095,6.31476 -57.12065,6.07115 -83.70386,-4.25415 C 96.812309,316.32148 55.007189,272.58118 40.328599,219.69993 c -1.70397,-6.96141 -4.03033,-15.38073 -4.055,-22.55249 z"
     fill="#e94a07"
     id="path4"
     sodipodi:nodetypes="ccccccccc"
     style="fill:#000000" />
  <path
     d="m 185.93457,12.783574 c 20.54705,0.0687 42.01913,-2.39737 61.42833,6.02243 43.97843,14.07492 82.93827,46.98664 101.87299,89.473366 2.7265,5.09041 13.88577,34.47749 0.16153,8.41339 -5.74355,-12.16524 -16.55876,-22.111856 -24.2191,-33.639186 -31.55305,-34.14485 -77.29958,-56.87395 -124.42757,-54.33537 -30.46098,-0.38033 -61.25332,6.36012 -87.44247,22.30377 -30.415691,16.88224 -59.299721,46.82904 -72.173951,79.216736 0.40856,-5.15897 7.11267,-21.45343 10.41107,-27.771 22.21152,-43.685916 64.105681,-77.624936 112.409831,-87.429516 7.24489,-1.3719 14.60611,-2.13655 21.97934,-2.25462 z"
     fill="#f08a15"
     id="path5"
     sodipodi:nodetypes="ccccccccccc"
     style="fill:#000000" />
  <circle
     cx="104.0549"
     cy="160.18762"
     r="35.5"
     fill="#060606"
     id="circle5" />
  <circle
     cx="292.99707"
     cy="162.457"
     r="36.299999"
     fill="#050606"
     id="circle6" />
  <path
     d="m 179.12598,209.3031 c 14.84,3.9 31.46,2.56 45.87,-2.25 5.35,-0.51 9.68,-0.64 14.56,1.75 2.97,2.74 4.23,4.69 4.78,8.7 0.16,11.28 -3.8,19.29 -11.34,27.55 -9.33,9.47 -20.12,14.73 -33.56,15.1 -13.89,-0.62 -25.31,-5.53 -35.06,-15.53 -3.18,-3.87 -5.51,-8.14 -7.82,-12.57 -0.35,-0.66 -0.71,-1.32 -1.07,-2.01 -2.43,-4.89 -2.97,-8.53 -2.49,-13.99 5.88,-11.53 15.33,-10.15 26.13,-6.75 z"
     fill="#090402"
     id="path6"
     style="fill:#ffffff" />
  <path
     d="m 385.99707,254.05701 c 2.34,12.14 -4.7,23.24 -11,33 -8.31,11.9 -20.41,23.59 -35,27 -5.71,0.7 -10.15,0.34 -15,-3 -4.61,-4.21 -4.61,-4.21 -6,-7 1.05,-3.46 3.34,-5.46 5.94,-7.88 8.81,-8.64 15.98,-18.45 22.21,-29.08 0.61,-1.01 1.22,-2.01 1.85,-3.04 0.32,-0.6 0.64,-1.21 0.97,-1.83 2.37,-3.98 4.36,-5.63 8.83,-6.95 1.83,-0.41 3.67,-0.8 5.51,-1.16 0.91,-0.2 1.83,-0.41 2.77,-0.62 13.65,-2.95 13.65,-2.95 18.92,0.56 z"
     fill="#f3b015"
     id="path7"
     style="fill:#ffffff" />
  <path
     d="m 17.946289,251.81873 c 9.44,0.25 21.92,1.31 29.02,8.13 3.48,4.53 6.01,9.57 8.63,14.62 2.28,4.05 5.12,7.56 8.09,11.11 0.54,0.66 1.08,1.32 1.64,1.99 3.81,4.56 7.86,8.69 12.35,12.59 0.22,0.3 0.22,0.3 1.32,1.8 -0.92,3.49 -3.31,5.41 -6,7.69 -0.7,0.6 -1.4,1.2 -2.12,1.82 -3.71,2.94 -6.91,3.07 -11.55,3.01 -13.48,-2.11 -25.99,-13.21 -33.89,-23.84 -6.85,-9.85 -14.53,-22.59 -13.88,-34.86 0.95,-3.9 2.56,-3.83 6.39,-4.06 z"
     fill="#f2af15"
     id="path8"
     style="fill:#ffffff" />
  <path
     d="m 369.1727,252.89185 c -0.35,1.68 -1.52563,4.84516 -2.72563,7.03516 -0.43,0.8 -0.86,1.59 -1.3,2.42 -0.48,0.85 -0.96,1.7 -1.46,2.59 -0.24,0.43 -0.24,0.43 -1.45,2.62 -8.29,14.98 -18.16,28.6 -30.41,40.63 -1.83,1.87 -2.6439,2.45782 -3.9152,4.1413 -3.47,-0.32 -4.0448,-2.0213 -6.2948,-4.5813 -0.54,-0.6 -1.08,-1.19 -1.64,-1.8 -0.98,-1.89 -0.98,-1.89 -0.39,-3.88 1.59,-2.27 3.32,-4 5.35,-5.89 10.26,-10.06 18.45,-21.81 25.31,-34.42 1.64,-2.76 3.05478,-4.77651 6.09478,-5.90651 7.70479,-2.07652 8.92564,-2.3026 12.83085,-2.95865 z"
     fill="#f08b11"
     id="path9"
     sodipodi:nodetypes="cccccccccccccc"
     style="fill:#ffffff" />
  <path
     d="m 29.544899,252.74573 c 5.40423,0.0722 11.63618,2.4007 15.9464,5.85172 6.29609,7.09999 9.16722,16.49728 15.4102,23.6455 5.1874,6.66643 10.92678,12.55445 17.30451,18.09961 1.6491,2.22811 1.39153,2.10771 -2.18083,6.65702 -1.95135,1.60753 -3.77168,4.17437 -6.20898,5.02502 -3.62182,-4.77634 -7.51778,-8.74235 -14.72532,-16.96725 -12.06936,-14.31808 -8.15135,-10.53796 -18.80206,-26.08958 -0.68292,-2.82329 -6.58893,-14.27793 -6.74392,-16.22204 z"
     fill="#f08c14"
     id="path10"
     sodipodi:nodetypes="ccccccccc"
     style="fill:#ffffff" />
  <path
     d="m 217.31738,235.4867 c 1.95955,1.44511 5.95099,3.66771 7.39823,5.62636 l -1.71823,1.94364 c -6.42154,5.49195 -14.87918,8.05286 -23.22047,8.40621 -3.09535,0.18535 -6.22569,0.14572 -9.23176,-0.70895 -5.96016,-1.4379 -11.49068,-4.28065 -16.54777,-7.69726 0.64399,-3.68307 3.85635,-6.10107 6.70342,-8.14886 8.69835,-5.27543 19.71853,-5.78996 29.28512,-2.76448 2.56188,0.82549 5.03803,1.93134 7.33146,3.34334 z"
     fill="#df6729"
     id="path11"
     sodipodi:nodetypes="ccccccccc"
     style="fill:#000000" />
  <circle
     cx="305.59708"
     cy="148.957"
     r="11.1"
     fill="#f8f9f8"
     id="circle11" />
  <circle
     cx="118.89706"
     cy="148.05701"
     r="10.9"
     fill="#f8f9f8"
     id="circle12" />
</svg>
