<?xml version="1.0" encoding="UTF-8" standalone="no"?>
<svg
   version="1.1"
   width="800"
   height="597"
   id="svg12"
   sodipodi:docname="Gemini_final.svg"
   inkscape:version="1.4.3 (0d15f75, 2025-12-25)"
   xmlns:inkscape="http://www.inkscape.org/namespaces/inkscape"
   xmlns:sodipodi="http://sodipodi.sourceforge.net/DTD/sodipodi-0.dtd"
   xmlns="http://www.w3.org/2000/svg"
   xmlns:svg="http://www.w3.org/2000/svg">
  <defs
     id="defs12" />
  <sodipodi:namedview
     id="namedview12"
     pagecolor="#ffffff"
     bordercolor="#000000"
     borderopacity="0.25"
     inkscape:showpageshadow="2"
     inkscape:pageopacity="0.0"
     inkscape:pagecheckerboard="0"
     inkscape:deskcolor="#d1d1d1"
     inkscape:zoom="1.3822338"
     inkscape:cx="475.67928"
     inkscape:cy="202.93238"
     inkscape:window-width="2560"
     inkscape:window-height="1369"
     inkscape:window-x="-8"
     inkscape:window-y="-8"
     inkscape:window-maximized="1"
     inkscape:current-layer="svg12" />
  <path
     d="m 0,0 c 0.72,0.18 1.44,0.35 2.18,0.54 26.83,6.83 55.14,21.4 74.2,41.78 1.62,1.67 3.3,3.11 5.12,4.56 0.41,0.35 0.41,0.35 2.5,2.12 v 2 h 2 c 6.76,6.19 11.84,14.47 17,22 0.41,0.59 0.81,1.18 1.23,1.79 7.33,10.79 12.96,21.86 16.81,34.36 0.96,2.85 0.96,2.85 2.41,5.93 2.27,5.19 3.12,10.76 4.17,16.3 0.22,1.08 0.44,2.17 0.66,3.28 2.24,11.42 2.96,22.4 2.97,34.03 0,0.72 0,1.45 0.01,2.19 0,29.97 0,29.97 -5.26,42.12 -1.01,3.5 -1.96,7.01 -2.9,10.53 -1.1,3.47 -1.1,3.47 -2.67,6.54 -1.5,3.07 -2.48,5.48 -2.43,8.93 2.25,-0.07 2.25,-0.07 5.56,-1.12 8.27,-2.26 17.01,-3.87 25.06,-0.26 4.19,4.19 6.61,7.24 6.94,13.26 -0.84,20.07 -12.95,37.56 -26.72,51.28 -10.16,9.22 -22.46,16.61 -36.46,17.23 -6.46,-0.75 -14.43,-3.9 -18.72,-8.98 -0.41,-0.54 -0.83,-1.09 -1.25,-1.66 C 70,306 70,306 67.57,305.32 c -3.63,0.96 -5.94,3.13 -8.69,5.56 -13.45,11.1 -29.3,17.46 -45.58,23.29 -2.2,0.79 -4.39,1.62 -6.57,2.45 -15.94,5.88 -32.77,6.73 -49.59,6.64 -2.47,-0.01 -4.94,0 -7.41,0.01 -8.77,0.01 -17.12,-0.39 -25.73,-2.27 -0.7,-0.15 -1.4,-0.29 -2.13,-0.44 -26.21,-5.72 -52.53,-16.16 -72.68,-34.25 -2.19,-1.31 -2.19,-1.31 -4.23,-0.84 -1.96,1.53 -1.96,1.53 -3.79,3.92 -4.39,5.29 -12,8.56 -18.63,10.23 -12.26,0.75 -26.09,-8.19 -35.29,-15.63 -12.63,-11.18 -22.6,-26.37 -26.64,-42.77 C -240,259 -240,259 -241,258 c -0.82,-6.69 -0.34,-11.71 3.42,-17.34 3.12,-3.27 5.62,-4.56 10.14,-5.02 1.28,0.01 2.56,0.03 3.88,0.05 0.64,0 0.64,0 3.87,0.01 3.59,0.29 6.34,1.02 9.69,2.3 2.84,1.04 3.94,1.41 7,1 -0.75,-2.99 -2.07,-5.61 -3.39,-8.4 -2.08,-4.66 -3.37,-9.39 -4.7,-14.3 -0.76,-2.77 -1.62,-5.46 -2.53,-8.18 -3.59,-12.09 -3.75,-25.05 -3.75,-37.57 0,-2.42 -0.04,-4.83 -0.08,-7.24 -0.07,-10.59 1.38,-20.16 4,-30.41 2.15878,-14.01498 3.56113,-14.6699 7.45,-27.9 h 2 c 0.12,-0.8 0.25,-1.61 0.38,-2.44 3.35,-19.11 83.87,-91 102.62,-97.56 1.25,-0.49 2.5,-0.98 3.75,-1.46 C -67.38,-7.62 -30.73,-7.73 0,0 Z"
     fill="#f76911"
     transform="translate(443,129)"
     id="path2"
     sodipodi:nodetypes="ccccccccccccccccccccccccccccccccccccccccccccccccccscccccccc" />
  <path
     id="path3"
     style="fill:#000000"
     d="m 394.5643,123.04609 c -35.7571,0.42391 -72.61025,11.04694 -101.39937,32.08625 -33.71772,30.80222 -35.56827,31.24999 -58.85774,74.86353 -13.64571,34.82495 -17.30567,94.1069 1.01337,133.86648 -2.05655,5.2567 -27.24474,-9.99217 -34.31736,12.50095 -0.0711,21.59364 13.96686,42.5347 29.48755,56.81541 13.25016,11.19276 35.34051,24.0312 50.24682,8.84251 18.33432,-14.33656 18.94666,16.8605 94.23265,29.6432 51.63317,6.66539 78.68757,-1.43384 125.14301,-27.40848 13.77751,-7.66417 9.98759,-10.53384 24.93112,2.64686 24.58413,7.92561 48.02819,-14.13236 60.98928,-32.72086 9.2662,-13.05827 21.92463,-34.99915 6.79157,-47.77469 -7.39162,-9.60444 -39.02669,10.24038 -26.34958,-9.69054 7.94106,-20.47252 11.13387,-43.05304 9.64716,-65.41005 C 574.63462,243.27887 561.37677,208.47873 524.94705,170.28364 469.50416,127.49343 437.26137,122.0563 394.5643,123.04609 Z m 2.29507,12.36407 c 79.06376,-4.85656 154.49389,58.52805 165.21013,136.67585 5.97055,42.65885 -2.81501,87.91325 -29.16135,122.66173 -45.45655,65.68888 -142.13365,87.24197 -211.43998,47.80779 -59.79616,-31.43859 -94.85099,-102.42476 -83.72685,-169.01627 7.59755,-57.68587 49.62582,-108.01982 103.41798,-128.90341 17.84437,-6.15985 36.82073,-9.29361 55.70007,-9.22569 z"
     sodipodi:nodetypes="ccccccccccccccccccccccc" />
  <circle
     cx="493.57352"
     cy="284.22726"
     r="50.900002"
     fill="#fbf9f8"
     id="circle3" />
  <circle
     cx="301.33469"
     cy="284.58844"
     r="50.900002"
     fill="#fbfaf8"
     id="circle4" />
  <path
     d="m 237.27653,320.09043 c 8.39489,20.12085 16.7481,41.01496 31.54252,57.52222 37.89138,46.05468 101.51973,68.01841 159.9372,57.29253 55.81485,-8.50189 112.32744,-53.9169 131.3582,-108.07238 5.6674,-11.00938 -3.65037,25.00721 -5.71785,29.03928 -18.4836,52.15913 -66.03561,91.44953 -119.77419,102.8888 -27.57095,6.31476 -57.12065,6.07115 -83.70386,-4.25415 -53.10331,-15.24226 -94.90843,-58.98256 -109.58702,-111.86381 -1.70397,-6.96141 -4.03033,-15.38073 -4.055,-22.55249 z"
     fill="#e94a07"
     id="path4"
     sodipodi:nodetypes="ccccccccc" />
  <path
     d="m 386.9375,135.72656 c 20.54705,0.0687 42.01913,-2.39737 61.42833,6.02243 43.97843,14.07492 82.93827,46.98664 101.87299,89.47337 2.7265,5.09041 13.88577,34.47749 0.16153,8.41339 -5.74355,-12.16524 -16.55876,-22.11186 -24.2191,-33.63919 -31.55305,-34.14485 -77.29958,-56.87395 -124.42757,-54.33537 -30.46098,-0.38033 -61.25332,6.36012 -87.44247,22.30377 -30.41569,16.88224 -59.29972,46.82904 -72.17395,79.21674 0.40856,-5.15897 7.11267,-21.45343 10.41107,-27.771 22.21152,-43.68592 64.10568,-77.62494 112.40983,-87.42952 7.24489,-1.3719 14.60611,-2.13655 21.97934,-2.25462 z"
     fill="#f08a15"
     id="path5"
     sodipodi:nodetypes="ccccccccccc" />
  <circle
     cx="305.05783"
     cy="283.13062"
     r="35.5"
     fill="#060606"
     id="circle5" />
  <circle
     cx="494.0"
     cy="285.4"
     r="36.3"
     fill="#050606"
     id="circle6" />
  <path
     d="M0 0 C14.84 3.9 31.46 2.56 45.87 -2.25 C51.22 -2.76 55.55 -2.89 60.43 -0.5 C63.4 2.24 64.66 4.19 65.21 8.2 C65.37 19.48 61.41 27.49 53.87 35.75 C44.54 45.22 33.75 50.48 20.31 50.85 C6.42 50.23 -5 45.32 -14.75 35.32 C-17.93 31.45 -20.26 27.18 -22.57 22.75 C-22.92 22.09 -23.28 21.43 -23.64 20.74 C-26.07 15.85 -26.61 12.21 -26.13 6.75 C-20.25 -4.78 -10.8 -3.4 0 0 Z "
     fill="#090402"
     transform="translate(380.12890625,332.24609375)"
     id="path6" />
  <path
     d="M0 0 C2.34 12.14 -4.7 23.24 -11 33 C-19.31 44.9 -31.41 56.59 -46 60 C-51.71 60.7 -56.15 60.34 -61 57 C-65.61 52.79 -65.61 52.79 -67 50 C-65.95 46.54 -63.66 44.54 -61.06 42.12 C-52.25 33.48 -45.08 23.67 -38.85 13.04 C-38.24 12.03 -37.63 11.03 -37 10 C-36.68 9.4 -36.36 8.79 -36.03 8.17 C-33.66 4.19 -31.67 2.54 -27.2 1.22 C-25.37 0.81 -23.53 0.42 -21.69 0.06 C-20.78 -0.14 -19.86 -0.35 -18.92 -0.56 C-5.27 -3.51 -5.27 -3.51 0 0 Z "
     fill="#F3B015"
     transform="translate(587,377)"
     id="path7" />
  <path
     d="M0 0 C9.44 0.25 21.92 1.31 29.02 8.13 C32.5 12.66 35.03 17.7 37.65 22.75 C39.93 26.8 42.77 30.31 45.74 33.86 C46.28 34.52 46.82 35.18 47.38 35.85 C51.19 40.41 55.24 44.54 59.73 48.44 C59.95 48.74 59.95 48.74 61.05 50.24 C60.13 53.73 57.74 55.65 55.05 57.93 C54.35 58.53 53.65 59.13 52.93 59.75 C49.22 62.69 46.02 62.82 41.38 62.76 C27.9 60.65 15.39 49.55 7.49 38.92 C0.64 29.07 -7.04 16.33 -6.39 4.06 C-5.44 0.16 -3.83 0.23 0 0 Z "
     fill="#F2AF15"
     transform="translate(218.94921875,374.76171875)"
     id="path8" />
  <path
     d="M 1.1756332,-3.1651663 C 0.8256332,-1.4851663 -0.35,1.68 -1.55,3.87 c -0.43,0.8 -0.86,1.59 -1.3,2.42 -0.48,0.85 -0.96,1.7 -1.46,2.59 -0.24,0.43 -0.24,0.43 -1.45,2.62 -8.29,14.98 -18.16,28.6 -30.41,40.63 -1.83,1.87 -2.6439,2.457817 -3.9152,4.1413 -3.47,-0.32 -4.0448,-2.0213 -6.2948,-4.5813 -0.54,-0.6 -1.08,-1.19 -1.64,-1.8 C -49,48 -49,48 -48.41,46.01 c 1.59,-2.27 3.32,-4 5.35,-5.89 10.26,-10.06 18.45,-21.81 25.31,-34.42 1.64,-2.76 3.054783,-4.77651663 6.094783,-5.90651663 7.7047837,-2.07651667 8.9256335,-2.30259997 12.8308502,-2.95864967 z"
     fill="#f08b11"
     transform="translate(569,379)"
     id="path9"
     sodipodi:nodetypes="cccccccccccccc" />
  <path
     d="m 230.54783,375.68872 c 5.40423,0.0722 11.63618,2.4007 15.9464,5.85172 6.29609,7.09999 9.16722,16.49728 15.4102,23.6455 5.1874,6.66643 10.92678,12.55445 17.30451,18.09961 1.6491,2.22811 1.39153,2.10771 -2.18083,6.65702 -1.95135,1.60753 -3.77168,4.17437 -6.20898,5.02502 -3.62182,-4.77634 -7.51778,-8.74235 -14.72532,-16.96725 -12.06936,-14.31808 -8.15135,-10.53796 -18.80206,-26.08958 -0.68292,-2.82329 -6.58893,-14.27793 -6.74392,-16.22204 z"
     fill="#f08c14"
     id="path10"
     sodipodi:nodetypes="ccccccccc" />
  <path
     d="m 418.32031,358.42969 c 1.95955,1.44511 5.95099,3.66771 7.39823,5.62636 l -1.71823,1.94364 c -6.42154,5.49195 -14.87918,8.05286 -23.22047,8.40621 -3.09535,0.18535 -6.22569,0.14572 -9.23176,-0.70895 -5.96016,-1.4379 -11.49068,-4.28065 -16.54777,-7.69726 0.64399,-3.68307 3.85635,-6.10107 6.70342,-8.14886 8.69835,-5.27543 19.71853,-5.78996 29.28512,-2.76448 2.56188,0.82549 5.03803,1.93134 7.33146,3.34334 z"
     fill="#df6729"
     id="path11"
     sodipodi:nodetypes="ccccccccc" />
  <circle
     cx="506.6"
     cy="271.9"
     r="11.1"
     fill="#F8F9F8"
     id="circle11" />
  <circle
     cx="319.9"
     cy="271.0"
     r="10.9"
     fill="#F8F9F8"
     id="circle12" />
</svg>
